
<svg width="75px" height="104px" viewBox="0 0 75 104" version="1.1" xmlns="http://www.w3.org/2000/svg" xmlns:xlink="http://www.w3.org/1999/xlink">
    <!-- Generator: Sketch 51.3 (57544) - http://www.bohemiancoding.com/sketch -->
    <desc>Created with Sketch.</desc>
    <defs>
        <path d="M6.65867187,25.3580446 C2.8125,25.3580446 0,20.5091429 0,16.921875 C0,14.5221071 1.25,11.9986696 3.87015625,11.9986696 C7.71632812,11.9986696 10.5288281,16.8723393 10.5288281,20.4596071 C10.5288281,22.859375 9.30289062,25.3580446 6.65867188,25.3580446 Z M33.8461719,34.3632813 C33.8461719,37.5052366 31.3461719,38 28.8942188,38 C25.6730469,38 23.076875,35.7734375 20,35.7734375 C16.7788281,35.7734375 14.0384375,37.9752321 10.5528906,37.9752321 C8.22109375,37.9752321 6.15382813,37.1588259 6.15382813,34.3632813 C6.15382813,28.5 14.110625,19.7916384 20,19.7916384 C25.889375,19.7916384 33.8461719,28.5247679 33.8461719,34.3632813 Z M14.2548437,14.5716429 C10.3605469,14.5716429 8.00484375,9.52476786 8.00484375,6.06125446 C8.00484375,3.29039286 9.3990625,0 12.5,0 C16.4182812,0 18.75,5.046875 18.75,8.51038839 C18.75,11.28125 17.3557812,14.5716429 14.2548437,14.5716429 Z M21.25,8.51038839 C21.25,5.046875 23.5817188,0 27.5,0 C30.6009375,0 31.9952344,3.29039286 31.9952344,6.06116964 C31.9952344,9.52468304 29.6394531,14.571558 25.7451563,14.571558 C22.6442188,14.5716429 21.25,11.28125 21.25,8.51038839 Z M40,16.921875 C40,20.5091429 37.1875,25.3580446 33.3413281,25.3580446 C30.6970312,25.3580446 29.4711719,22.859375 29.4711719,20.4596071 C29.4711719,16.8724241 32.2835937,11.9986696 36.1298437,11.9986696 C38.75,11.9986696 40,14.5221071 40,16.921875 Z" id="path-1"></path>
    </defs>
    <g id="w/-7px-baseline" stroke="none" stroke-width="1" fill="none" fill-rule="evenodd">
        <g id="Assets" transform="translate(-1650.000000, -71.000000)">
            <g id="Group-4" transform="translate(1200.000000, 53.000000)">
                <path d="M452,18 L523,18 C524.104569,18 525,18.8954305 525,20 L525,86.6437997 C525,87.42827 524.541383,88.1403066 523.827145,88.464742 L450,122 L487.5,87.9319842 L452,87.9319842 C450.895431,87.9319842 450,87.0365537 450,85.9319842 L450,20 C450,18.8954305 450.895431,18 452,18 Z" id="Combined-Shape" fill="#BD4089" fill-rule="nonzero"></path>
                <g id="Solid/paw" transform="translate(468.000000, 35.000000)">
                    <mask id="mask-2" fill="white">
                        <use xlink:href="#path-1"></use>
                    </mask>
                    <use id="Mask" fill="#F8F7FF" fill-rule="nonzero" xlink:href="#path-1"></use>
                </g>
            </g>
        </g>
    </g>
</svg>