<?xml version="1.0" encoding="iso-8859-1"?>
<!-- Generator: Adobe Illustrator 16.0.0, SVG Export Plug-In . SVG Version: 6.00 Build 0)  -->
<!DOCTYPE svg PUBLIC "-//W3C//DTD SVG 1.1//EN" "http://www.w3.org/Graphics/SVG/1.1/DTD/svg11.dtd">
<svg version="1.1" id="Capa_1" xmlns="http://www.w3.org/2000/svg" xmlns:xlink="http://www.w3.org/1999/xlink" x="0px" y="0px"
	 width="612.009px" height="612.009px" viewBox="0 0 612.009 612.009" style="enable-background:new 0 0 612.009 612.009;"
	 xml:space="preserve">
<g>
	<g id="Paper_x5F_plane">
		<g>
			<path d="M603.59,8.424c-7.86-7.879-19.584-10.519-30.045-6.693L18.92,202.543c-10.844,3.921-18.303,14-18.876,25.532
				c-0.574,11.551,5.833,22.3,16.256,27.291l229.959,110.39l110.389,229.978c4.781,9.983,14.86,16.275,25.857,16.275
				c0.479,0,0.956-0.019,1.435-0.038c11.513-0.573,21.611-8.014,25.531-18.876L610.283,38.47
				C614.07,28.008,611.488,16.324,603.59,8.424z M102.726,233.22l369.17-133.646l-210.05,210.03L102.726,233.22z M378.813,509.328
				l-76.384-159.14L512.479,140.12L378.813,509.328z"/>
		</g>
	</g>
</g>
<g>
</g>
<g>
</g>
<g>
</g>
<g>
</g>
<g>
</g>
<g>
</g>
<g>
</g>
<g>
</g>
<g>
</g>
<g>
</g>
<g>
</g>
<g>
</g>
<g>
</g>
<g>
</g>
<g>
</g>
</svg>
